<mxfile host="Electron" agent="Mozilla/5.0 (Windows NT 10.0; Win64; x64) AppleWebKit/537.36 (KHTML, like Gecko) draw.io/26.0.16 Chrome/132.0.6834.196 Electron/34.2.0 Safari/537.36" version="26.0.16">
  <diagram name="第 1 页" id="WptWd97nCgoWpcvQ4Yvt">
    <mxGraphModel dx="1050" dy="1804" grid="1" gridSize="10" guides="1" tooltips="1" connect="1" arrows="1" fold="1" page="1" pageScale="1" pageWidth="827" pageHeight="1169" math="0" shadow="0">
      <root>
        <mxCell id="0" />
        <mxCell id="1" parent="0" />
        <mxCell id="Un935zuJHlsUMGHUA8LD-1" value="" style="ellipse;whiteSpace=wrap;html=1;aspect=fixed;" vertex="1" parent="1">
          <mxGeometry x="315" y="-620" width="130" height="130" as="geometry" />
        </mxCell>
        <mxCell id="Un935zuJHlsUMGHUA8LD-2" value="" style="ellipse;whiteSpace=wrap;html=1;aspect=fixed;" vertex="1" parent="1">
          <mxGeometry x="345" y="-590" width="70" height="70" as="geometry" />
        </mxCell>
        <mxCell id="Un935zuJHlsUMGHUA8LD-3" value="" style="endArrow=none;html=1;rounded=0;entryX=0.5;entryY=0;entryDx=0;entryDy=0;exitX=0.5;exitY=0;exitDx=0;exitDy=0;" edge="1" parent="1" source="Un935zuJHlsUMGHUA8LD-2" target="Un935zuJHlsUMGHUA8LD-1">
          <mxGeometry width="50" height="50" relative="1" as="geometry">
            <mxPoint x="545" y="-590" as="sourcePoint" />
            <mxPoint x="595" y="-640" as="targetPoint" />
          </mxGeometry>
        </mxCell>
        <mxCell id="Un935zuJHlsUMGHUA8LD-4" value="" style="endArrow=none;html=1;rounded=0;exitX=1;exitY=0;exitDx=0;exitDy=0;entryX=1;entryY=0;entryDx=0;entryDy=0;" edge="1" parent="1" source="Un935zuJHlsUMGHUA8LD-2" target="Un935zuJHlsUMGHUA8LD-1">
          <mxGeometry width="50" height="50" relative="1" as="geometry">
            <mxPoint x="485" y="-530" as="sourcePoint" />
            <mxPoint x="535" y="-580" as="targetPoint" />
          </mxGeometry>
        </mxCell>
        <mxCell id="Un935zuJHlsUMGHUA8LD-5" value="" style="endArrow=none;html=1;rounded=0;exitX=1;exitY=0.5;exitDx=0;exitDy=0;entryX=1;entryY=0.5;entryDx=0;entryDy=0;" edge="1" parent="1" source="Un935zuJHlsUMGHUA8LD-2" target="Un935zuJHlsUMGHUA8LD-1">
          <mxGeometry width="50" height="50" relative="1" as="geometry">
            <mxPoint x="705" y="-610" as="sourcePoint" />
            <mxPoint x="445" y="-560" as="targetPoint" />
          </mxGeometry>
        </mxCell>
        <mxCell id="Un935zuJHlsUMGHUA8LD-6" value="" style="endArrow=none;html=1;rounded=0;exitX=1;exitY=1;exitDx=0;exitDy=0;entryX=1;entryY=1;entryDx=0;entryDy=0;" edge="1" parent="1" source="Un935zuJHlsUMGHUA8LD-1" target="Un935zuJHlsUMGHUA8LD-2">
          <mxGeometry width="50" height="50" relative="1" as="geometry">
            <mxPoint x="555" y="-510" as="sourcePoint" />
            <mxPoint x="605" y="-560" as="targetPoint" />
          </mxGeometry>
        </mxCell>
        <mxCell id="Un935zuJHlsUMGHUA8LD-7" value="" style="endArrow=none;html=1;rounded=0;exitX=0.5;exitY=1;exitDx=0;exitDy=0;entryX=0.5;entryY=1;entryDx=0;entryDy=0;" edge="1" parent="1" source="Un935zuJHlsUMGHUA8LD-1" target="Un935zuJHlsUMGHUA8LD-2">
          <mxGeometry width="50" height="50" relative="1" as="geometry">
            <mxPoint x="495" y="-500" as="sourcePoint" />
            <mxPoint x="545" y="-550" as="targetPoint" />
          </mxGeometry>
        </mxCell>
        <mxCell id="Un935zuJHlsUMGHUA8LD-8" value="" style="endArrow=none;html=1;rounded=0;exitX=0;exitY=1;exitDx=0;exitDy=0;entryX=0;entryY=1;entryDx=0;entryDy=0;" edge="1" parent="1" source="Un935zuJHlsUMGHUA8LD-1" target="Un935zuJHlsUMGHUA8LD-2">
          <mxGeometry width="50" height="50" relative="1" as="geometry">
            <mxPoint x="545" y="-520" as="sourcePoint" />
            <mxPoint x="595" y="-570" as="targetPoint" />
          </mxGeometry>
        </mxCell>
        <mxCell id="Un935zuJHlsUMGHUA8LD-9" value="" style="endArrow=none;html=1;rounded=0;entryX=0;entryY=0.5;entryDx=0;entryDy=0;exitX=0;exitY=0.5;exitDx=0;exitDy=0;" edge="1" parent="1" source="Un935zuJHlsUMGHUA8LD-1" target="Un935zuJHlsUMGHUA8LD-2">
          <mxGeometry width="50" height="50" relative="1" as="geometry">
            <mxPoint x="295" y="-540" as="sourcePoint" />
            <mxPoint x="295" y="-590" as="targetPoint" />
          </mxGeometry>
        </mxCell>
        <mxCell id="Un935zuJHlsUMGHUA8LD-10" value="" style="endArrow=none;html=1;rounded=0;exitX=0;exitY=0;exitDx=0;exitDy=0;entryX=0;entryY=0;entryDx=0;entryDy=0;" edge="1" parent="1" source="Un935zuJHlsUMGHUA8LD-2" target="Un935zuJHlsUMGHUA8LD-1">
          <mxGeometry width="50" height="50" relative="1" as="geometry">
            <mxPoint x="495" y="-530" as="sourcePoint" />
            <mxPoint x="545" y="-580" as="targetPoint" />
          </mxGeometry>
        </mxCell>
        <mxCell id="Un935zuJHlsUMGHUA8LD-11" value="输出队列" style="text;html=1;align=center;verticalAlign=middle;whiteSpace=wrap;rounded=0;" vertex="1" parent="1">
          <mxGeometry x="351" y="-570" width="60" height="30" as="geometry" />
        </mxCell>
        <mxCell id="Un935zuJHlsUMGHUA8LD-12" value="" style="endArrow=classic;html=1;rounded=0;" edge="1" parent="1">
          <mxGeometry width="50" height="50" relative="1" as="geometry">
            <mxPoint x="295" y="-555.4300000000001" as="sourcePoint" />
            <mxPoint x="315" y="-555.4300000000001" as="targetPoint" />
          </mxGeometry>
        </mxCell>
        <mxCell id="Un935zuJHlsUMGHUA8LD-13" value="tail" style="text;html=1;align=center;verticalAlign=middle;resizable=0;points=[];autosize=1;strokeColor=none;fillColor=none;" vertex="1" parent="1">
          <mxGeometry x="277" y="-580" width="40" height="30" as="geometry" />
        </mxCell>
        <mxCell id="Un935zuJHlsUMGHUA8LD-14" value="" style="endArrow=none;html=1;rounded=0;startFill=1;startArrow=classic;" edge="1" parent="1">
          <mxGeometry width="50" height="50" relative="1" as="geometry">
            <mxPoint x="445" y="-555.3000000000001" as="sourcePoint" />
            <mxPoint x="465" y="-555.3000000000001" as="targetPoint" />
          </mxGeometry>
        </mxCell>
        <mxCell id="Un935zuJHlsUMGHUA8LD-15" value="msg" style="text;html=1;align=center;verticalAlign=middle;resizable=0;points=[];autosize=1;strokeColor=none;fillColor=none;" vertex="1" parent="1">
          <mxGeometry x="400" y="-553" width="50" height="30" as="geometry" />
        </mxCell>
        <mxCell id="Un935zuJHlsUMGHUA8LD-16" value="msg" style="text;html=1;align=center;verticalAlign=middle;resizable=0;points=[];autosize=1;strokeColor=none;fillColor=none;" vertex="1" parent="1">
          <mxGeometry x="375" y="-526" width="50" height="30" as="geometry" />
        </mxCell>
        <mxCell id="Un935zuJHlsUMGHUA8LD-17" value="msg" style="text;html=1;align=center;verticalAlign=middle;resizable=0;points=[];autosize=1;strokeColor=none;fillColor=none;" vertex="1" parent="1">
          <mxGeometry x="334" y="-525" width="50" height="30" as="geometry" />
        </mxCell>
        <mxCell id="Un935zuJHlsUMGHUA8LD-18" value="msg" style="text;html=1;align=center;verticalAlign=middle;resizable=0;points=[];autosize=1;strokeColor=none;fillColor=none;" vertex="1" parent="1">
          <mxGeometry x="309" y="-552" width="50" height="30" as="geometry" />
        </mxCell>
        <mxCell id="Un935zuJHlsUMGHUA8LD-19" value="head" style="text;html=1;align=center;verticalAlign=middle;resizable=0;points=[];autosize=1;strokeColor=none;fillColor=none;" vertex="1" parent="1">
          <mxGeometry x="442" y="-581" width="50" height="30" as="geometry" />
        </mxCell>
        <mxCell id="Un935zuJHlsUMGHUA8LD-20" value="free_count" style="text;html=1;align=center;verticalAlign=middle;resizable=0;points=[];autosize=1;strokeColor=none;fillColor=none;" vertex="1" parent="1">
          <mxGeometry x="341" y="-650" width="80" height="30" as="geometry" />
        </mxCell>
        <mxCell id="Un935zuJHlsUMGHUA8LD-21" value="busy_count" style="text;html=1;align=center;verticalAlign=middle;resizable=0;points=[];autosize=1;strokeColor=none;fillColor=none;" vertex="1" parent="1">
          <mxGeometry x="340" y="-490" width="80" height="30" as="geometry" />
        </mxCell>
        <mxCell id="Un935zuJHlsUMGHUA8LD-129" value="" style="endArrow=classic;html=1;rounded=0;" edge="1" parent="1">
          <mxGeometry width="50" height="50" relative="1" as="geometry">
            <mxPoint x="300" y="-600" as="sourcePoint" />
            <mxPoint x="326" y="-630" as="targetPoint" />
          </mxGeometry>
        </mxCell>
        <mxCell id="Un935zuJHlsUMGHUA8LD-132" value="" style="html=1;shadow=0;dashed=0;align=center;verticalAlign=middle;shape=mxgraph.arrows2.arrow;dy=0.47;dx=18.11;flipH=1;notch=0;rotation=-180;" vertex="1" parent="1">
          <mxGeometry x="220" y="-570" width="50" height="30" as="geometry" />
        </mxCell>
        <mxCell id="Un935zuJHlsUMGHUA8LD-131" value="msg" style="text;html=1;align=center;verticalAlign=middle;whiteSpace=wrap;rounded=0;" vertex="1" parent="1">
          <mxGeometry x="210" y="-570" width="60" height="30" as="geometry" />
        </mxCell>
        <mxCell id="Un935zuJHlsUMGHUA8LD-133" value="&lt;b&gt;Main/Server&lt;/b&gt;" style="shape=umlActor;verticalLabelPosition=bottom;verticalAlign=top;html=1;outlineConnect=0;" vertex="1" parent="1">
          <mxGeometry x="180" y="-586" width="30" height="60" as="geometry" />
        </mxCell>
        <mxCell id="Un935zuJHlsUMGHUA8LD-134" value="" style="html=1;shadow=0;dashed=0;align=center;verticalAlign=middle;shape=mxgraph.arrows2.arrow;dy=0.47;dx=18.11;flipH=1;notch=0;rotation=-180;" vertex="1" parent="1">
          <mxGeometry x="540" y="-570" width="50" height="30" as="geometry" />
        </mxCell>
        <mxCell id="Un935zuJHlsUMGHUA8LD-135" value="msg" style="text;html=1;align=center;verticalAlign=middle;whiteSpace=wrap;rounded=0;" vertex="1" parent="1">
          <mxGeometry x="528" y="-571" width="60" height="30" as="geometry" />
        </mxCell>
        <mxCell id="Un935zuJHlsUMGHUA8LD-136" value="&lt;b&gt;Client&lt;/b&gt;" style="shape=umlActor;verticalLabelPosition=bottom;verticalAlign=top;html=1;outlineConnect=0;" vertex="1" parent="1">
          <mxGeometry x="492" y="-585" width="30" height="60" as="geometry" />
        </mxCell>
      </root>
    </mxGraphModel>
  </diagram>
</mxfile>
